<svg height="55" width="148" xmlns="http://www.w3.org/2000/svg"><g fill="none"><path d="m68.0989456 35.9030512c1.898216 0 3.5741826 1.4703492 3.5741826 4.6918216 0 6.2873068-6.0410725 12.2617733-11.8614775 12.2617733-2.9422348 0-4.2701951-1.5329171-3.7007303-5.0992959l1.4545081-9.227223c.1906124-1.2192949-.2847325-1.3764971-1.3279604-1.1567268v-.1259182c1.1072928-.6248984 3.3210872-1.2192949 4.83966-1.2192949 1.8033052 0 2.5618007.6882486 2.2137944 2.7834961l-1.454508 8.6023246c-.506191 2.9391341-.4278101 3.2421466 1.0266979 3.2421466 3.5116997 0 7.7331925-4.8653269 7.7331925-8.6506939 0-1.1431083-.5508406-1.659317-1.5622644-1.659317-.8858342 0-1.4721318.3738652-1.8201381 1.2803198-1.4869359-.186922-2.3727701-1.438283-2.3727701-2.8147801 0-1.6580533 1.486145-2.9086322 3.2578133-2.9086322zm15.1230873-.0001564c2.5934372.031284 6.2000476.6569645 6.2000476 3.5655967 0 2.3142357-3.1629023 4.5666854-10.2804214 3.2848225l.0632738-.2823383c3.7323674.2823383 5.535673-2.3768037 5.535673-4.3156311 0-1.127007-.443708-1.9396095-1.518573-1.9396095-2.6567119 0-4.4283802 4.1912771-4.4283802 7.5691697 0 3.4717446 1.7083945 5.2236499 4.2701952 5.2862179 1.676758.0312841 3.9221889-.4692603 5.3458509-2.4080877l.2214587.0938521c-2.1513112 3.8471528-5.5673096 6.0996026-9.2680397 6.0996026-3.7015215 0-6.4215067-2.596574-6.4215067-6.7565671 0-5.4426382 4.2385582-10.1970278 10.2804218-10.1970278zm-76.62291406-8.0074588c1.80330525 0 2.49931781.6569645 2.08803764 2.7842781l-2.94223486 15.1383394h.12654774c2.11967456-7.975862 5.21930314-9.9154715 8.06583634-9.9154715 3.9546167 0 3.7007303 3.2848226 3.3210871 5.4426381l-.7584955 4.4415494c-.6643756 3.9410049-.7592864 6.1621707.6327387 6.6939991v.1251361c-.8225603.1564201-1.5818467.2189882-2.3411332.2189882-2.6883484 0-4.87129679-1.0636569-4.2385581-5.0359458l1.2971142-8.0079282c.2530955-1.4703491.1898217-2.1898817-.6011017-2.1898817-1.74003136 0-3.85891501 3.6602309-5.02948157 8.3207684-.53782787 2.1585977-1.42366202 6.0370346-.34800627 6.568863v.1251361c-1.10650176.1564201-1.99312683.2502721-2.75162233.2502721-2.49931778 0-3.57497353-1.0636567-2.94223485-4.9108096l2.909807-17.5472093c.19061252-1.220077-.28394149-1.3764971-1.32796031-1.1575089v-.1251361c1.10729269-.6256805 3.32108714-1.2200769 4.83965997-1.2200769zm23.06237566 8.0076935c1.8349422 0 3.0679917 1.2818629 4.9029339 1.2818629.7909234 0 1.8657881-.2807742 2.5934377-1.0941588l-1.6759666 9.6957013c-.6960126 3.9410049-.7592865 6.1621706.6327386 6.6939991v.1251361c-.8225602.1564201-1.5818467.2189882-2.341133.2189882-2.6883485 0-5.0611185-1.1262249-4.1120106-5.0359459l1.1705666-4.8169576-.1265478-.0312841c-1.9931267 7.78894-4.4283797 9.9154715-7.2757038 9.9154715-3.3210871 0-4.4916537-2.9399162-4.4916537-5.8180463 0-5.7234123 4.9978446-11.1347664 10.7233387-11.1347664zm22.018436-.1258401c2.878961 0 3.9854628 2.0021776 3.9854628 3.785367 0 2.3768038-1.6443296 4.1287092-3.9221889 4.1287092-1.8025143 0-3.0996286-1.0949409-3.0679916-2.9086322 1.1705665-.1564202 2.3087052-1.0331549 2.3087052-2.3150178 0-1.0323729-.5054-1.5016332-1.2330495-1.5016332-1.9614899 0-3.8913429 3.5343127-5.2509401 8.9456667-.5378279 2.1585977-1.423662 6.0370347-.3480063 6.5688631v.125136c-1.1072927.1564202-1.9931268.2502723-2.7516223.2502723-2.4993178 0-3.6382474-1.0636569-2.9422348-4.9108098l1.7083944-9.4774951c.2214585-1.220077-.2847324-1.3764971-1.3287513-1.157509v-.125136c1.1072927-.6256805 3.3210872-1.2192949 4.83966-1.2192949 1.8033053 0 2.5934376.6874665 2.0880376 2.7834961l-1.7400313 7.0686253h.1265477c2.1188836-7.944578 4.4283799-10.0406077 7.5280084-10.0406077zm-21.8602513.4386803c-2.9730808 0-5.1560293 7.4440336-5.1560293 12.4486954 0 1.282645.2847324 2.4706558 1.1072927 2.4706558 1.8974251 0 3.9854628-4.7856736 4.8396599-9.4774951l.3472154-1.9075434c.2538864-1.3764971.5386188-3.5343127-1.1381387-3.5343127zm54.6042405-24.4331359c3.3210873 0 4.4916539 2.9399162 4.4916539 5.8180465 0 5.7234122-4.6182015 11.4163226-11.9888159 11.1034823l.0316365-.1877041c4.3026231.093852 6.231685-7.5378857 6.231685-12.5425475 0-1.282645-.2847326-2.4714379-1.1072921-2.4714379-1.8974254 0-3.9854635 4.7864557-4.8396603 9.5087792-1.4545079 7.9453601-1.9614899 11.886365-.5694651 12.4181935v.1251361c-4.8396597.125136-6.6738109-.6882486-6.0094354-4.6605376l2.7516224-16.5469026c.1898216-1.2200769-.2839415-1.3757149-1.3287512-1.1567268v-.1259182c1.1072927-.6248984 3.3218781-1.2192948 4.8396602-1.2192948 1.8033048 0 2.689139.7195326 2.0880374 2.783496l-1.9923357 7.0373413.1265476.0312841c1.9923357-7.7881579 4.4275888-9.9146895 7.2749127-9.9146895zm-60.330921-.1257617c2.878961 0 3.9854628 2.0021775 3.9854628 3.7853669 0 2.3768038-1.6443297 4.1287091-3.9221889 4.1287091-1.8025143 0-3.0996286-1.0949408-3.0679917-2.9094143 1.1705666-.155638 2.3087053-1.0315906 2.3087053-2.3142357 0-1.0323728-.5054-1.5016331-1.2330495-1.5016331-1.96149 0-3.8913429 3.5343126-5.2509401 8.9456668-.5378279 2.1585977-1.4236621 6.0370345-.3480063 6.568863v.1251361c-1.1072927.1564201-1.9931268.2502721-2.7516223.2502721-2.4993178 0-3.6382474-1.0636567-2.9422349-4.9108097l1.7083945-9.4774952c.2214585-1.2200769-.2847324-1.375715-1.3287513-1.1575088v-.1251361c1.1072927-.6256805 3.3210872-1.2192949 4.83966-1.2192949 1.8033052 0 2.5934376.6874664 2.0880376 2.7834961l-1.7400314 7.0686253h.1265478c2.1188836-7.944578 4.4283798-10.0406076 7.5280084-10.0406076zm14.0475896.1252142c2.5934377.0312841 6.1992572.6569646 6.1992572 3.5655968 0 2.3150177-3.1629025 4.5674675-10.2804216 3.2848225l.0632738-.2815562c3.7331582.2815562 5.5356725-2.3775859 5.5356725-4.3164133 0-1.1262249-.442917-1.9396095-1.5177819-1.9396095-2.6575024 0-4.4291707 4.1920593-4.4291707 7.5699518 0 3.4717446 1.7083944 5.22365 4.270986 5.2862181 1.6759666.0312839 3.9221889-.4692605 5.3458509-2.40887l.2206676.0938521c-2.1505206 3.8471529-5.5665185 6.0996027-9.2672488 6.0996027-3.7015213 0-6.4215067-2.5965741-6.4215067-6.7565672 0-5.441856 4.2385583-10.1970278 10.2804217-10.1970278zm17.2414963.0003911c3.6690933 0 6.1051373 1.4703492 6.1051373 4.003573 0 1.9396095-1.455299 3.3153245-3.2578133 3.3153245-1.3287512 0-2.7207763-.8126025-2.5942286-2.8460641.6011017-.2502722 1.5818467-.9698048 1.5818467-2.2837338 0-1.1254427-.6327387-1.8762593-1.7716683-1.8762593-2.7199854 0-4.4916537 4.1912771-4.4916537 7.5691697 0 3.4717445 1.7083944 5.2236499 4.2701952 5.286218 1.6767575.031284 3.9221888-.4692604 5.3458509-2.4080878l.2214585.0938521c-2.1513115 3.8471529-5.5673094 6.0988205-9.2680398 6.0988205-3.7007303 0-6.4207157-2.5957919-6.4207157-6.7565671 0-5.4418561 4.2377673-10.1962457 10.2796308-10.1962457zm12.592607.0628027c1.9923358 0 2.371979.8438866 2.0239728 2.7834961l-1.2646865 7.0686253c-.6960125 3.941787-.7592863 6.1308866.6319478 6.662715v.1251362c-.8225603.15642-1.5818467.2189881-2.3403422.2189881-2.6567115 0-4.9662077-1.0636568-4.2385582-5.0359458l1.6759666-9.321075c.2222494-1.220077-.2530955-1.375715-1.3279604-1.157509v-.1251361c1.1065018-.6256805 3.3210872-1.2192948 4.8396601-1.2192948zm1.422871-8.07049619c1.2022035 0 2.6258655.62568049 2.6258655 2.37758585 0 2.4401539-2.847324 4.59796944-6.1051373 4.47283344l-.0632738-.0938522c.6643756-1.0323727.9807449-3.40917649.0316369-4.59796941.7592864-1.37649707 2.2145854-2.15859768 3.5109087-2.15859768zm20.9760785 18.20433019c0-5.441856 4.2385579-10.1970278 10.2804219-10.1970278 2.593437.0312841 6.200047.6569646 6.200047 3.5655968 0 2.3150177-3.162902 4.5674675-10.2804213 3.2848225l.0632739-.2815562c3.7323674.2815562 5.5356734-2.3775859 5.5356734-4.3164133 0-1.1262249-.443708-1.9396095-1.518573-1.9396095-2.6567123 0-4.4283806 4.1920593-4.4283806 7.5699518 0 3.4717446 1.7083945 5.22365 4.2701956 5.2862181 1.676758.0312839 3.922188-.4692605 5.34585-2.40887l.221459.0938521c-2.151311 3.8471529-5.567309 6.0996027-9.2680395 6.0996027-3.7015215 0-6.4215064-2.5965741-6.4215064-6.7565672m-.8226397 27.4361675c0-1.313929 1.1389294-2.5957919 2.7199857-2.5957919 1.1080835 0 2.3411326.6882486 2.2778588 2.0952476-.790923.2189881-1.3595968 1.0636568-1.3595968 1.9396095 0 .8751706.7592858 1.6885552 3.0996286 1.6885552 1.4861444 0 4.4916533-.3746262 4.4916533-2.3455197 0-3.847935-9.8691414-3.1596864-9.8691414-8.5084726 0-3.8784368 4.7763857-5.7859802 8.7934857-5.7859802 2.5934377 0 5.9145247.6248983 5.9145247 3.0337682 0 1.375715-1.074864 2.3150178-2.371979 2.3150178-1.106502 0-2.213794-.6569645-2.213794-1.9396095.695221-.1877041 1.296323-.8446687 1.296323-1.5954852 0-1.0003067-1.106502-1.5008511-2.6883485-1.5008511-1.7392404 0-3.8589151.6256805-3.8589151 2.3455197 0 3.941005 9.7109576 2.7842782 9.7109576 8.1643483 0 4.2530631-5.15603 6.1301045-9.300468 6.1301045-3.0672014 0-6.6421746-.9072367-6.6421746-3.4404606m19.5189596-12.949709h-1.423661l.063273-.3120581c4.555719 0 7.022608-1.4703491 7.813532-5.9118985h.316369l-1.012382 5.9118985h2.213795l-.062483.3120581h-2.182949l-1.581846 9.4774952c-.696013 4.2546273-.72765 6.0057506.980745 6.537579v.1251361c-1.13893.1564201-1.897426.2189882-2.656712.2189882-2.688348 0-4.871296-1.0636569-4.238558-5.0359459z" fill="#56b609"/><path d="m139.342368 6.78887671c.113049-1.74085104.224471-3.48170209.339959-5.22255313.059371-.89576325.523764-1.32128806 1.374475-1.26986737.846645.05067546 1.250854.52687572 1.193923 1.42189374-.22691 3.52119914-.460327 7.04165308-.683984 10.56285215-.062624.9784835.493672 1.5120663 1.502976 1.4680979.775074-.0335353 1.219949-.488124 1.279319-1.350352.163473-2.40559378.315561-4.81193282.471714-7.21752664.07157-1.09548418.139074-2.19171358.215524-3.28645252.063437-.9158844.456261-1.3168167 1.266306-1.30936443.853965.0081975 1.28908.44117459 1.319172 1.34364488.060184 1.80121445.112235 3.60242891.16266 5.40364337.074009 2.60456948.147207 5.20839384.213083 7.81296334.033346 1.3130905-.22203 2.5769961-.875922 3.7529648-.858844 1.5456015-2.242266 2.4801166-4.078695 2.8661444-1.083314.2272943-1.153258.2839316-1.154071 1.2855171-.00976 5.818735-.00976 11.6374699-.013013 17.4554597-.001626 3.4481668.01708 6.8963337-.012199 10.3445006-.01952 2.3690776-1.389115 3.5554796-3.985979 3.5159825-.467647-.006707-.94424-.0387518-1.401314-.1289243-1.941345-.3837921-2.9905-1.609691-2.805068-3.4384789.242363-2.3988868.588015-4.7888308.898695-7.1810105.552231-4.2604647 1.113407-8.5201841 1.667263-12.7806488.359478-2.7625576.708384-5.5258606 1.073555-8.2876731.068317-.5224044-.100849-.8711707-.676664-1.035866-3.304435-.9479292-4.677284-3.4578548-4.470706-6.4223691.113862-1.6372644.446502-3.2626053.704318-4.890927.471713-2.98463544.962946-5.96703521 1.441166-8.95092544.13338-.82869279.526204-1.23335123 1.24516-1.249001.901135-.02012114 1.394808.46576708 1.33869 1.34588056-.151273 2.40633904-.311493 4.81193286-.46846 7.21827194-.07401 1.13423598-.154527 2.26847194-.220404 3.40345314-.052865.9278081.396077 1.4308365 1.299652 1.4822572.906015.0521659 1.426526-.3994419 1.489964-1.321288.122808-1.7796029.233417-3.559951.348905-5.34029909m-13.983824 18.98034889c1.227152 8.0333307 2.460003 16.0659126 3.672498 24.1014901.096087.6373044.122145 1.2993222.052115 1.9373755-.118074 1.0903822-.784986 1.8617377-1.911979 2.236931-1.026019.3414933-2.090311.4276156-3.15786.1812311-1.430726-.33026-2.389158-1.3974266-2.454303-2.7723866-.171817-3.6568242-.316763-7.3143974-.474737-10.9719706-.124588-2.890711-.249176-5.7806731-.381093-8.6706352-.016286-.3534756-.072473-.7054533-.119702-1.057431-.14576-1.0926289-.760558-1.8310334-1.955137-2.06918-2.10334-.4186289-3.157045-1.7149555-3.484394-3.5632131-.99019-5.5717332-1.619645-11.1621885-.611541-16.79308381.42588-2.37921992 1.223081-4.64685538 3.104116-6.42471753.659584-.62457331 1.468185-1.14205551 2.284929-1.59363549 1.058591-.58563109 1.495871-.34898221 1.667688.77360219.765444 4.99134423 1.527629 9.98343734 2.289815 14.97478164.495095 3.2366976.989375 6.4733953 1.483657 9.7100929-.000814 0-.002443.0007489-.004072.0007489" fill="#72dcc9"/></g></svg>