<?xml version="1.0" encoding="utf-8"?><svg xmlns="http://www.w3.org/2000/svg" xmlns:xlink="http://www.w3.org/1999/xlink"><symbol viewBox="0 0 10.471 7.925" id="arrow-down" xmlns="http://www.w3.org/2000/svg"><path d="m0 0 5.236 7.925L10.471 0z"/></symbol><symbol viewBox="0 0 76.6 76.6" id="brain" xmlns="http://www.w3.org/2000/svg"><path d="M63.6 29c-.4 0-.8-.2-1.1-.6-.4-.6-.2-1.4.4-1.7 2-1.3 3.1-3.4 3.1-5.7 0-3.7-3-6.8-6.8-6.8-2.6 0-4.9 1.4-6 3.7-.3.6-1.1.9-1.7.5-.6-.3-.9-1.1-.5-1.7 1.6-3.1 4.8-5.1 8.3-5.1 5.1 0 9.3 4.2 9.3 9.3 0 3.2-1.6 6.1-4.3 7.8-.2.3-.5.3-.7.3z"/><path d="M38.3 26.9c-.7 0-1.2-.6-1.2-1.2V11.8C37 5.3 42.3 0 48.8 0s11.8 5.3 11.8 11.8v.9c-.1.7-.7 1.2-1.4 1.1s-1.2-.7-1.1-1.4v-.6c0-5.1-4.2-9.3-9.3-9.3s-9.3 4.2-9.3 9.3v13.9c0 .6-.5 1.2-1.2 1.2zM48.8 76.5c-6.5 0-11.8-5.3-11.8-11.8V51c0-.7.6-1.2 1.2-1.2s1.2.6 1.2 1.2v13.7c0 5.1 4.2 9.3 9.3 9.3s9.3-4.2 9.3-9.3V64c-.1-.7.5-1.3 1.1-1.3.7-.1 1.3.5 1.3 1.1v.9c.2 6.6-5.1 11.8-11.6 11.8zM66.9 53.1c-.5 0-.9-.3-1.1-.7-.3-.6-.1-1.4.6-1.7 4.8-2.4 7.7-7.2 7.7-12.5 0-5.4-3.1-10.3-8-12.6-.6-.3-.9-1-.6-1.7.3-.6 1-.9 1.7-.6 5.7 2.7 9.4 8.5 9.4 14.8S73.1 50 67.5 52.8c-.2.3-.4.3-.6.3z"/><path d="M59.3 64.8c-3.5 0-6.7-1.9-8.3-5.1-.3-.6-.1-1.4.5-1.7s1.4-.1 1.7.5c1.2 2.3 3.5 3.7 6 3.7 3.7 0 6.8-3 6.8-6.8 0-2.3-1.2-4.4-3.1-5.7-.6-.4-.7-1.1-.4-1.7.4-.6 1.2-.7 1.7-.4 2.7 1.7 4.3 4.6 4.3 7.8 0 5.2-4.1 9.4-9.2 9.4zM13 29c-.2 0-.5-.1-.7-.2A9.14 9.14 0 0 1 8 21c0-5.1 4.2-9.3 9.3-9.3 3.5 0 6.7 1.9 8.3 5.1.3.6.1 1.4-.5 1.7s-1.4.1-1.7-.5c-1.2-2.3-3.5-3.7-6-3.7-3.7 0-6.8 3-6.8 6.8 0 2.3 1.2 4.4 3.1 5.7.6.4.7 1.1.4 1.7-.3.3-.7.5-1.1.5z"/><path d="M38.3 26.9c-.7 0-1.2-.6-1.2-1.2V11.8c0-5.1-4.2-9.3-9.3-9.3s-9.3 4.2-9.3 9.3v.6c.1.7-.4 1.3-1.1 1.4s-1.3-.4-1.4-1.1v-.9C16 5.3 21.3 0 27.8 0s11.8 5.3 11.8 11.8v13.9c-.1.6-.6 1.2-1.3 1.2zM27.8 76.5c-6.5 0-11.8-5.3-11.8-11.8v-.9c.1-.7.7-1.2 1.3-1.2.7.1 1.2.7 1.1 1.3v.7c0 5.1 4.2 9.3 9.3 9.3s9.3-4.2 9.3-9.3V51c0-.7.6-1.2 1.2-1.2s1.3.6 1.3 1.2v13.7c0 6.6-5.3 11.8-11.7 11.8zM9.6 53.1c-.2 0-.4 0-.6-.1-5.5-2.8-9-8.5-9-14.7C0 32 3.7 26.1 9.4 23.4c.6-.3 1.4 0 1.7.6s0 1.4-.6 1.7c-4.8 2.3-8 7.2-8 12.6 0 5.3 3 10.1 7.7 12.5.6.3.9 1.1.6 1.7-.3.3-.7.6-1.2.6z"/><path d="M17.3 64.8c-5.1 0-9.3-4.2-9.3-9.3 0-3.2 1.6-6.1 4.3-7.8.6-.4 1.4-.2 1.7.4.4.6.2 1.4-.4 1.7-2 1.3-3.1 3.4-3.1 5.7 0 3.7 3 6.8 6.8 6.8 2.6 0 4.9-1.4 6-3.7.3-.6 1.1-.9 1.7-.5.6.3.9 1.1.5 1.7-1.6 3.1-4.7 5-8.2 5zM39.7 52.3h-2.9c-2.5 0-4.5-2-4.5-4.5v-3.6h-3.6c-2.5 0-4.5-2-4.5-4.5v-2.9c0-2.5 2-4.5 4.5-4.5h3.6v-3.6c0-2.5 2-4.5 4.5-4.5h2.9c2.5 0 4.5 2 4.5 4.5v3.6h3.6c2.5 0 4.5 2 4.5 4.5v2.9c0 2.5-2 4.5-4.5 4.5h-3.6v3.6c0 2.5-2 4.5-4.5 4.5zM28.8 34.9c-1.1 0-2 .9-2 2v2.9c0 1.1.9 2 2 2h4.8c.7 0 1.2.6 1.2 1.2v4.8c0 1.1.9 2 2 2h2.9c1.1 0 2-.9 2-2V43c0-.7.6-1.2 1.2-1.2h4.8c1.1 0 2-.9 2-2v-2.9c0-1.1-.9-2-2-2h-4.8c-.7 0-1.2-.6-1.2-1.2v-4.8c0-1.1-.9-2-2-2h-2.9c-1.1 0-2 .9-2 2v4.8c0 .7-.6 1.2-1.2 1.2z"/></symbol><symbol viewBox="0 0 76.6 76.6" id="brain-blue" xmlns="http://www.w3.org/2000/svg"><g fill="#4587FF"><path d="M63.6 29c-.4 0-.8-.2-1.1-.6-.4-.6-.2-1.4.4-1.7 2-1.3 3.1-3.4 3.1-5.7 0-3.7-3-6.8-6.8-6.8-2.6 0-4.9 1.4-6 3.7-.3.6-1.1.9-1.7.5-.6-.3-.9-1.1-.5-1.7 1.6-3.1 4.8-5.1 8.3-5.1 5.1 0 9.3 4.2 9.3 9.3 0 3.2-1.6 6.1-4.3 7.8-.2.3-.5.3-.7.3z"/><path d="M38.3 26.9c-.7 0-1.2-.6-1.2-1.2V11.8C37 5.3 42.3 0 48.8 0s11.8 5.3 11.8 11.8v.9c-.1.7-.7 1.2-1.4 1.1s-1.2-.7-1.1-1.4v-.6c0-5.1-4.2-9.3-9.3-9.3s-9.3 4.2-9.3 9.3v13.9c0 .6-.5 1.2-1.2 1.2zM48.8 76.5c-6.5 0-11.8-5.3-11.8-11.8V51c0-.7.6-1.2 1.2-1.2s1.2.6 1.2 1.2v13.7c0 5.1 4.2 9.3 9.3 9.3s9.3-4.2 9.3-9.3V64c-.1-.7.5-1.3 1.1-1.3.7-.1 1.3.5 1.3 1.1v.9c.2 6.6-5.1 11.8-11.6 11.8zM66.9 53.1c-.5 0-.9-.3-1.1-.7-.3-.6-.1-1.4.6-1.7 4.8-2.4 7.7-7.2 7.7-12.5 0-5.4-3.1-10.3-8-12.6-.6-.3-.9-1-.6-1.7.3-.6 1-.9 1.7-.6 5.7 2.7 9.4 8.5 9.4 14.8S73.1 50 67.5 52.8c-.2.3-.4.3-.6.3z"/><path d="M59.3 64.8c-3.5 0-6.7-1.9-8.3-5.1-.3-.6-.1-1.4.5-1.7s1.4-.1 1.7.5c1.2 2.3 3.5 3.7 6 3.7 3.7 0 6.8-3 6.8-6.8 0-2.3-1.2-4.4-3.1-5.7-.6-.4-.7-1.1-.4-1.7.4-.6 1.2-.7 1.7-.4 2.7 1.7 4.3 4.6 4.3 7.8 0 5.2-4.1 9.4-9.2 9.4zM13 29c-.2 0-.5-.1-.7-.2A9.14 9.14 0 0 1 8 21c0-5.1 4.2-9.3 9.3-9.3 3.5 0 6.7 1.9 8.3 5.1.3.6.1 1.4-.5 1.7s-1.4.1-1.7-.5c-1.2-2.3-3.5-3.7-6-3.7-3.7 0-6.8 3-6.8 6.8 0 2.3 1.2 4.4 3.1 5.7.6.4.7 1.1.4 1.7-.3.3-.7.5-1.1.5z"/><path d="M38.3 26.9c-.7 0-1.2-.6-1.2-1.2V11.8c0-5.1-4.2-9.3-9.3-9.3s-9.3 4.2-9.3 9.3v.6c.1.7-.4 1.3-1.1 1.4s-1.3-.4-1.4-1.1v-.9C16 5.3 21.3 0 27.8 0s11.8 5.3 11.8 11.8v13.9c-.1.6-.6 1.2-1.3 1.2zM27.8 76.5c-6.5 0-11.8-5.3-11.8-11.8v-.9c.1-.7.7-1.2 1.3-1.2.7.1 1.2.7 1.1 1.3v.7c0 5.1 4.2 9.3 9.3 9.3s9.3-4.2 9.3-9.3V51c0-.7.6-1.2 1.2-1.2s1.3.6 1.3 1.2v13.7c0 6.6-5.3 11.8-11.7 11.8zM9.6 53.1c-.2 0-.4 0-.6-.1-5.5-2.8-9-8.5-9-14.7C0 32 3.7 26.1 9.4 23.4c.6-.3 1.4 0 1.7.6s0 1.4-.6 1.7c-4.8 2.3-8 7.2-8 12.6 0 5.3 3 10.1 7.7 12.5.6.3.9 1.1.6 1.7-.3.3-.7.6-1.2.6z"/><path d="M17.3 64.8c-5.1 0-9.3-4.2-9.3-9.3 0-3.2 1.6-6.1 4.3-7.8.6-.4 1.4-.2 1.7.4.4.6.2 1.4-.4 1.7-2 1.3-3.1 3.4-3.1 5.7 0 3.7 3 6.8 6.8 6.8 2.6 0 4.9-1.4 6-3.7.3-.6 1.1-.9 1.7-.5.6.3.9 1.1.5 1.7-1.6 3.1-4.7 5-8.2 5zM39.7 52.3h-2.9c-2.5 0-4.5-2-4.5-4.5v-3.6h-3.6c-2.5 0-4.5-2-4.5-4.5v-2.9c0-2.5 2-4.5 4.5-4.5h3.6v-3.6c0-2.5 2-4.5 4.5-4.5h2.9c2.5 0 4.5 2 4.5 4.5v3.6h3.6c2.5 0 4.5 2 4.5 4.5v2.9c0 2.5-2 4.5-4.5 4.5h-3.6v3.6c0 2.5-2 4.5-4.5 4.5zM28.8 34.9c-1.1 0-2 .9-2 2v2.9c0 1.1.9 2 2 2h4.8c.7 0 1.2.6 1.2 1.2v4.8c0 1.1.9 2 2 2h2.9c1.1 0 2-.9 2-2V43c0-.7.6-1.2 1.2-1.2h4.8c1.1 0 2-.9 2-2v-2.9c0-1.1-.9-2-2-2h-4.8c-.7 0-1.2-.6-1.2-1.2v-4.8c0-1.1-.9-2-2-2h-2.9c-1.1 0-2 .9-2 2v4.8c0 .7-.6 1.2-1.2 1.2z"/></g></symbol><symbol viewBox="0 0 512 512" id="check" xmlns="http://www.w3.org/2000/svg"><!--! Font Awesome Pro 6.3.0 by @fontawesome - https://fontawesome.com License - https://fontawesome.com/license (Commercial License) Copyright 2023 Fonticons, Inc.--><path d="M470.6 105.4c12.5 12.5 12.5 32.8 0 45.3l-256 256c-12.5 12.5-32.8 12.5-45.3 0l-128-128c-12.5-12.5-12.5-32.8 0-45.3s32.8-12.5 45.3 0L192 338.7l233.4-233.3c12.5-12.5 32.8-12.5 45.3 0z"/></symbol><symbol viewBox="0 0 448 512" id="chevron-down" xmlns="http://www.w3.org/2000/svg"><!--! Font Awesome Pro 6.3.0 by @fontawesome - https://fontawesome.com License - https://fontawesome.com/license (Commercial License) Copyright 2023 Fonticons, Inc.--><path d="M201.4 406.6c12.5 12.5 32.8 12.5 45.3 0l192-192c12.5-12.5 12.5-32.8 0-45.3s-32.8-12.5-45.3 0L224 338.7 54.6 169.4c-12.5-12.5-32.8-12.5-45.3 0s-12.5 32.8 0 45.3l192 192z"/></symbol><symbol viewBox="0 0 13.6 24.3" id="chevron-right" xmlns="http://www.w3.org/2000/svg"><path d="M1.5 24.3c-.4 0-.8-.1-1.1-.4-.6-.6-.6-1.5 0-2.1l9.6-9.6L.4 2.6C-.1 2-.1 1 .4.4 1-.1 2-.1 2.6.4L13.2 11c.6.6.6 1.5 0 2.1L2.6 23.8c-.3.3-.7.5-1.1.5z"/></symbol><symbol viewBox="0 0 119.9 138.3" id="cog" xmlns="http://www.w3.org/2000/svg"><path d="m102.6 46.2-7.4-.6c-.6-2.4-1.5-4.7-2.7-6.8l5-5.9c.8-.9.7-2.3-.1-3.1l-7.2-7.2c-.8-.8-2.2-.9-3.1-.1l-5.7 4.8c-2.1-1.3-4.4-2.2-6.8-3l-.7-7.7c-.1-1.2-1.1-2.1-2.3-2.1H61.4c-1.2 0-2.2.9-2.3 2.1l-.6 7.3c-2.4.6-4.7 1.5-6.9 2.7l-6-5c-.9-.8-2.3-.7-3.1.1l-7.2 7.2c-.9.9-.9 2.2-.1 3.1l4.8 5.6c-1.3 2.1-2.3 4.3-3 6.7l-7.8.7c-1.2.1-2.2 1.1-2.2 2.3v10.2c0 1.2.9 2.2 2.1 2.3l7.4.6c.6 2.4 1.5 4.7 2.7 6.8l-5 5.9c-.8.9-.7 2.3.1 3.1l7.2 7.2c.8.8 2.2.9 3.1.1l5.7-4.8c2.1 1.3 4.4 2.2 6.8 3l.7 7.7c.1 1.2 1.1 2.1 2.3 2.1h10.3c1.2 0 2.2-.9 2.3-2.1l.6-7.3c2.4-.6 4.7-1.5 6.9-2.7l6 5c.9.8 2.2.7 3.1-.1l7.3-7.2c.9-.8.9-2.2.1-3.1l-4.8-5.6c1.3-2.1 2.3-4.3 3-6.7l7.8-.6c1.2-.1 2.1-1.1 2.1-2.3V48.5c-.1-1.2-1-2.2-2.2-2.3zm-2.5 10.4-7.3.6c-1 .1-1.8.8-2 1.8-.7 3-2 5.8-3.7 8.3-.6.9-.5 2 .1 2.8l4.5 5.3-4.2 4.2-5.6-4.7c-.8-.6-1.8-.7-2.7-.2-2.6 1.6-5.5 2.7-8.5 3.3-1 .2-1.8 1-1.9 2.1l-.6 6.9h-6l-.6-7.2c-.1-1-.8-1.8-1.8-2.1-3-.7-5.8-1.9-8.4-3.7-.8-.6-2-.5-2.8.2l-5.4 4.5-4.2-4.2 4.7-5.5c.7-.8.7-1.9.2-2.7-1.6-2.6-2.7-5.4-3.3-8.4-.2-1-1-1.8-2.1-1.9l-7-.6v-5.9l7.3-.6c1-.1 1.8-.8 2-1.8.7-3 2-5.8 3.7-8.3.6-.9.5-2-.2-2.8L40 30.7l4.2-4.2 5.6 4.7c.8.6 1.8.7 2.7.2 2.6-1.6 5.5-2.7 8.5-3.3 1-.2 1.8-1 1.9-2.1l.6-6.9h6l.6 7.2c.1 1 .8 1.8 1.8 2 3 .7 5.8 2 8.4 3.7.9.6 2 .5 2.8-.1l5.4-4.5 4.2 4.2-4.7 5.5c-.7.8-.7 1.8-.2 2.7 1.6 2.6 2.7 5.5 3.3 8.4.2 1 1 1.8 2.1 1.9l7 .6v5.9zM65.9 39.4c-7.5 0-13.7 6.1-13.7 13.6s6.1 13.6 13.7 13.6S79.5 60.4 79.5 53c0-7.5-6.1-13.6-13.6-13.6zm0 22.5c-5 0-9.1-4-9.1-9s4.1-8.9 9.1-8.9 9.1 4 9.1 9c0 4.9-4.1 8.9-9.1 8.9zm54-8.7c0 13.9-5.3 26.9-15 36.9v46c0 1.3-1 2.3-2.3 2.3s-2.3-1-2.3-2.3v-47c0-.6.2-1.2.7-1.6 9.2-9.2 14.3-21.3 14.3-34.3 0-7.1-1.3-13.4-3.8-18.8C96.6 2.7 67.6 4.5 66.4 4.6c-27.2 0-49.2 21.8-49.2 48.5 0 .7 0 1.5.1 2.2 0 .5-.1 1-.4 1.4L7 70.5l-1.6 2.7c-1 1.8-1 3.9 0 5.6 1 1.8 2.8 2.8 4.9 2.8 1.3 0 2.3 1 2.3 2.3V104c0 6.3 5.2 11.4 11.5 11.4H46c1.3 0 2.3 1 2.3 2.3V136c0 1.3-1 2.3-2.3 2.3s-2.3-1-2.3-2.3v-16H24.1c-8.9 0-16.2-7.2-16.2-16V86c-2.8-.6-5.1-2.3-6.6-4.9-1.8-3.2-1.8-7 0-10.2L3.1 68l9.5-13.2v-1.6C12.5 23.9 36.6 0 66.2 0c.1 0 33.1-2.3 49.4 32.4 2.9 6 4.3 13 4.3 20.8z"/></symbol><symbol viewBox="0 0 320 512" id="cross" xmlns="http://www.w3.org/2000/svg"><!--! Font Awesome Pro 6.3.0 by @fontawesome - https://fontawesome.com License - https://fontawesome.com/license (Commercial License) Copyright 2023 Fonticons, Inc.--><path d="M310.6 150.6c12.5-12.5 12.5-32.8 0-45.3s-32.8-12.5-45.3 0L160 210.7 54.6 105.4c-12.5-12.5-32.8-12.5-45.3 0s-12.5 32.8 0 45.3L114.7 256 9.4 361.4c-12.5 12.5-12.5 32.8 0 45.3s32.8 12.5 45.3 0L160 301.3l105.4 105.3c12.5 12.5 32.8 12.5 45.3 0s12.5-32.8 0-45.3L205.3 256l105.3-105.4z"/></symbol><symbol viewBox="0 0 70.528 76.295" id="flag" xmlns="http://www.w3.org/2000/svg"><g fill="none" stroke="#4587ff" stroke-linejoin="round" stroke-width="2.5"><circle cx="12.588" cy="29.693" r="5.039"/><path d="M12.588 57.408v17.637" stroke-linecap="round"/><circle cx="57.94" cy="29.693" r="5.039"/><path d="M57.94 57.409v17.636m6.3-30.234v28.974a1.26 1.26 0 0 1-1.26 1.26H52.9a1.26 1.26 0 0 1-1.26-1.26V46.169a2.52 2.52 0 0 0-3.14-2.442l-8.8 2.256a2.519 2.519 0 1 1-1.3-4.867l14.5-3.864 5.039 5.039 5.04-5.039 3.264.832a4.436 4.436 0 0 1 3.035 4.207v11.337a5.04 5.04 0 0 1-5.039 5.04M35.264 1.25v73.795M58.025 17.8H35.264V1.25h22.761l-6.208 8.276zM6.289 44.81v28.975a1.26 1.26 0 0 0 1.26 1.26h10.077a1.26 1.26 0 0 0 1.261-1.26v-28.66a3.78 3.78 0 0 1 2.721-3.625l10.528-3.071a2.519 2.519 0 0 0-1.3-4.867l-13.21 3.69-5.039 5.039-5.038-5.039-3.264.832a4.436 4.436 0 0 0-3.035 4.207v11.337a5.04 5.04 0 0 0 5.039 5.04" stroke-linecap="round"/></g></symbol><symbol viewBox="0 0 167.3 109.4" id="laptop" xmlns="http://www.w3.org/2000/svg"><path d="M164.6 91.8h-4.5V22.3c0-12.3-10-22.3-22.3-22.3H29.5C17.2 0 7.2 10 7.2 22.3v69.5H2.7C1.2 91.8 0 93 0 94.5v2.8c0 6.7 5.4 12.1 12.1 12.1h143.2c6.7 0 12.1-5.4 12.1-12.1v-2.8c-.1-1.5-1.3-2.7-2.8-2.7zM12.7 22.3c0-9.3 7.5-16.8 16.8-16.8h108.3c9.3 0 16.8 7.5 16.8 16.8v69.5h-37.9C111.5 72.1 98.5 59 83.7 59S55.8 72.1 50.6 91.8H12.7zM111 91.8H56.3C61 75.3 71.7 64.5 83.7 64.5c11.9 0 22.6 10.8 27.3 27.3zm50.8 5.5c0 3.6-3 6.6-6.6 6.6H12.1c-3.6 0-6.6-3-6.6-6.6v-.1zM83.7 14.6c-11.2 0-20.4 9.2-20.4 20.4s9.1 20.4 20.4 20.4c11.2 0 20.4-9.2 20.4-20.4s-9.2-20.4-20.4-20.4zm0 35.3c-8.2 0-14.9-6.7-14.9-14.9s6.7-14.9 14.9-14.9S98.6 26.8 98.6 35s-6.7 14.9-14.9 14.9z"/></symbol><symbol viewBox="0 0 26.4 20.5" id="menu" xmlns="http://www.w3.org/2000/svg"><path d="M26.35 2.55H-.05V.05h26.4zm0 6.4H-.05v2.5h26.4zm0 9H-.05v2.5h26.4z"/></symbol><symbol viewBox="0 0 40.752 76.062" id="phone-heart" xmlns="http://www.w3.org/2000/svg"><g fill="none" stroke="#4587ff" stroke-linecap="round" stroke-linejoin="round" stroke-width="2.5"><rect height="73.562" rx="4.12" width="38.252" x="1.25" y="1.25"/><path d="M25.944 28.941a7.546 7.546 0 0 0-5.77 2.662 7.554 7.554 0 0 0-5.77-2.662 6.732 6.732 0 0 0-6.732 6.733c0 6.319 10.422 12.857 12.234 13.946a.514.514 0 0 0 .535 0c1.813-1.089 12.235-7.627 12.235-13.946a6.733 6.733 0 0 0-6.732-6.733z"/></g></symbol><symbol viewBox="0 0 81 81" id="play-arrow" xmlns="http://www.w3.org/2000/svg"><g data-name="Ellipse 7" fill="rgba(0,0,0,0.25)" stroke="#fff" stroke-width="2"><circle cx="40.5" cy="40.5" r="40.5" stroke="none"/><circle cx="40.5" cy="40.5" r="39.5" fill="none"/></g><g data-name="Polygon 1" fill="#fff"><path d="M31 57.293V23.707L60.955 40.5 31 57.293Z"/><path d="M58.91 40.5 32 25.414v30.172L58.91 40.5m4.09 0L30 59V22l33 18.5Z"/></g></symbol><symbol viewBox="0 0 139.52 110.84" id="sleep" xmlns="http://www.w3.org/2000/svg"><g fill="none"><path d="M84.993 47.967c-.17-19.546-10.973-31.809-24.292-31.809s-24.125 12.263-24.3 31.809c-3.6.828-5.664 5.331-4.6 10.077.94 4.2 4 7.174 7.207 7.265 4 12.755 12.2 22.6 21.686 22.6s17.681-9.842 21.686-22.6c3.2-.09 6.264-3.065 7.2-7.265 1.063-4.746-1-9.249-4.6-10.077" stroke="#00124f" stroke-width="3"/><path d="M84.993 47.967c-.17-19.546-10.973-31.809-24.292-31.809s-24.125 12.263-24.3 31.809c-3.6.828-5.664 5.331-4.6 10.077.94 4.2 4 7.174 7.207 7.265 4 12.755 12.2 22.6 21.686 22.6s17.681-9.842 21.686-22.6c3.2-.09 6.264-3.065 7.2-7.265 1.073-4.746-.987-9.249-4.587-10.077z" stroke="#00124f" stroke-miterlimit="10" stroke-width="3"/><g stroke-linecap="round"><path d="M46.123 89.604c-.788 3.04-4.9 10.207-15.9 10.207h-13.34c-6.574 0-10.207 7.16-10.7 9.224M75.278 89.604c.788 3.04 4.9 10.207 15.9 10.207h13.339c6.574 0 10.207 7.16 10.7 9.224" stroke="#00124f" stroke-linejoin="round" stroke-width="3"/><path d="M93.825 25.321h8.2l-8.631 8.631h8.64" stroke="#4587ff" stroke-linejoin="round" stroke-width="2"/><path d="M108.395 14.474h10.073l-10.6 10.6h10.6" stroke="#4587ff" stroke-linejoin="round" stroke-width="3"/><path d="M126.42 2h11.1l-11.675 11.678h11.674" stroke="#4587ff" stroke-linejoin="round" stroke-width="4"/><path d="M100.672 7.811H15.198A13.738 13.738 0 0 0 1.5 21.511v44.878a13.741 13.741 0 0 0 13.7 13.7h18.322M87.881 80.087h18.321a13.736 13.736 0 0 0 13.7-13.7V37.876" opacity=".5" stroke="#00124f" stroke-miterlimit="10" stroke-width="3"/></g></g></symbol><symbol viewBox="0 0 148.373 128.803" id="well-being" xmlns="http://www.w3.org/2000/svg"><g fill="none"><path d="M80.616 65.929C80.45 46.383 69.647 34.12 56.324 34.12S32.203 46.383 32.033 65.929c-3.6.828-5.664 5.331-4.6 10.077.943 4.2 4.008 7.174 7.207 7.265 4 12.755 12.2 22.6 21.686 22.6s17.685-9.842 21.689-22.6c3.2-.09 6.264-3.065 7.2-7.265 1.063-4.746-1-9.249-4.6-10.077" stroke="#00124f" stroke-width="3"/><path d="M80.616 65.929C80.45 46.383 69.647 34.12 56.324 34.12S32.203 46.383 32.033 65.929c-3.6.828-5.664 5.331-4.6 10.077.943 4.2 4.008 7.174 7.207 7.265 4 12.755 12.2 22.6 21.686 22.6s17.685-9.842 21.689-22.6c3.2-.09 6.264-3.065 7.2-7.265 1.065-4.746-.995-9.249-4.599-10.077z" stroke="#00124f" stroke-miterlimit="10" stroke-width="3"/><g stroke-linecap="round" stroke-linejoin="round"><path d="M41.745 107.566c-.788 3.04-4.9 10.207-15.9 10.207h-13.34c-6.574 0-10.207 7.16-10.7 9.224M70.904 107.566c.788 3.04 4.9 10.207 15.9 10.207h13.344c6.574 0 10.207 7.16 10.7 9.224" stroke="#00124f" stroke-width="3"/><path d="M122.57 38.858A13.057 13.057 0 1 1 109.512 25.8a13.058 13.058 0 0 1 13.058 13.058z" stroke="#ff874a" stroke-width="3"/><path d="M109.515 18.016V1" opacity=".5" stroke="#ff874a" stroke-width="2"/><path d="m124.252 24.12 12.032-12.032" opacity=".25" stroke="#ff874a" stroke-width="2"/><path d="M130.357 38.857h17.016" opacity=".5" stroke="#ff874a" stroke-width="2"/><path d="m124.252 53.594 12.032 12.032" opacity=".25" stroke="#ff874a" stroke-width="2"/><path d="M109.515 59.698v17.016" opacity=".5" stroke="#ff874a" stroke-width="2"/><path d="m94.778 53.594-5.703 5.703" opacity=".25" stroke="#ff874a" stroke-width="2"/><path d="M88.674 38.857h-8.508" opacity=".5" stroke="#ff874a" stroke-width="2"/><path d="M94.778 24.12 82.746 12.088" opacity=".25" stroke="#ff874a" stroke-width="2"/></g></g></symbol><symbol viewBox="0 0 112.645 116.676" id="worries" xmlns="http://www.w3.org/2000/svg"><g fill="none" stroke-width="3"><path d="M94.249 85.922a30.7 30.7 0 0 0 10.959-17.56 29.952 29.952 0 0 0-4.9-24.638C96.418 18.697 78.708 1.5 56.321 1.5s-40.1 17.2-43.989 42.226a29.966 29.966 0 0 0-4.897 24.636 30.7 30.7 0 0 0 10.958 17.56" opacity=".25" stroke="#f23629" stroke-linecap="round" stroke-miterlimit="10"/><path d="M80.616 53.802c-.17-19.546-10.973-31.809-24.291-31.809S32.199 34.256 32.033 53.802c-3.6.828-5.664 5.331-4.6 10.077.943 4.2 4.008 7.174 7.207 7.265 4 12.755 12.2 22.6 21.686 22.6s17.681-9.842 21.686-22.6c3.2-.09 6.264-3.065 7.2-7.265 1.066-4.746-.994-9.249-4.6-10.077" stroke="#00124f"/><path d="M80.616 53.802c-.17-19.546-10.973-31.809-24.291-31.809S32.199 34.256 32.033 53.802c-3.6.828-5.664 5.331-4.6 10.077.943 4.2 4.008 7.174 7.207 7.265 4 12.755 12.2 22.6 21.686 22.6s17.681-9.842 21.686-22.6c3.2-.09 6.264-3.065 7.2-7.265 1.068-4.746-.992-9.249-4.596-10.077z" stroke="#00124f" stroke-miterlimit="10"/><path d="M41.745 95.439c-.788 3.04-4.9 10.207-15.9 10.207h-13.34c-6.574 0-10.207 7.16-10.7 9.224M70.9 95.439c.788 3.04 4.9 10.207 15.9 10.207h13.335c6.574 0 10.207 7.16 10.7 9.224" stroke="#00124f" stroke-linecap="round" stroke-linejoin="round"/></g><path d="M68.002 53.018H57.914V38.824a1.146 1.146 0 0 0-2.122-.6L43.667 58.06a1.145 1.145 0 0 0 .976 1.742H54.73v14.19a1.145 1.145 0 0 0 2.122.6l12.126-19.836a1.143 1.143 0 0 0-.976-1.738" fill="#f23629"/><path d="M73.844 74.175a20.014 20.014 0 0 0 9.195-13.026c1.572-7.023-.383-13.77-4.67-18.064-2.23-21.35-15.986-36.313-34.22-36.313s-31.99 14.963-34.22 36.313C5.65 47.378 3.691 54.126 5.26 61.149a20.026 20.026 0 0 0 9.195 13.026" style="fill:none;stroke:#f23629;stroke-linecap:round;stroke-miterlimit:10;stroke-width:3;opacity:.5" transform="translate(12.172 4.971)"/></symbol></svg>