<svg height="13.87" viewBox="0 0 390.35 13.87" width="390.35" xmlns="http://www.w3.org/2000/svg"><g fill="#fff"><path d="m744.113.01h.485l.931 1.329.93-1.329h.477v2.855h-.5v-1.413c0-.216 0-.42 0-.617h-.008c-.118.182-.244.357-.379.552l-.536.765-.536-.765c-.134-.194-.26-.37-.379-.552h-.008v.617 1.413h-.485z" transform="translate(-356.586 -.005)"/><path d="m13.968 13.87v-6.3h-11.348v6.3h-2.62v-13.87h2.62v5.517h11.348v-5.517h2.62v13.87z"/><path d="m65.121 8.747v5.123h-2.621v-13.87h11.369c3.152 0 4.353 1.359 4.353 3.349v2.051c0 1.989-1.2 3.349-4.353 3.349zm10.479-5.417c0-.828-.551-1.281-1.733-1.281h-8.746v4.651h8.748c1.182 0 1.733-.453 1.733-1.28z" transform="translate(-29.951)"/><path d="m121.861 13.87v-2.049h12.056c1.184 0 1.734-.454 1.734-1.281v-1.753c0-.828-.55-1.281-1.734-1.281h-8.156c-3.152 0-4.354-1.359-4.354-3.349v-.808c0-1.99 1.2-3.349 4.354-3.349h11.739v2.049h-11.739c-1.182 0-1.734.454-1.734 1.281v.847c0 .827.552 1.281 1.734 1.281h8.156c3.152 0 4.354 1.359 4.354 3.349v1.713c0 1.99-1.2 3.349-4.354 3.349z" transform="translate(-58.18)"/><path d="m228.288 13.87v-13.87h11.289c3.073 0 4.256 1.143 4.256 3v1.28a2.176 2.176 0 0 1 -1.633 2.301 2.17 2.17 0 0 1 1.812 2.265v2.03c0 1.576-.966 2.995-4.392 2.995zm12.924-10.737c0-.769-.414-1.084-1.636-1.084h-8.669v3.606h8.669c1.222 0 1.636-.316 1.636-1.084zm.177 5.752c0-.867-.729-1.182-1.772-1.182h-8.709v4.118h8.709c1.043 0 1.772-.316 1.772-1.439z" transform="translate(-109.397)"/><path d="m302.114 13.87-3.251-6.186h-7.308v6.186h-2.621v-13.87h11.782c3.152 0 4.353 1.359 4.353 3.349v.985c0 1.793-.966 3.074-3.427 3.311l3.27 6.225zm.335-10.54c0-.828-.551-1.281-1.733-1.281h-9.161v3.585h9.161c1.182 0 1.733-.453 1.733-1.28z" transform="translate(-138.46)"/><path d="m364.572 13.87-7.152-11.17-7.27 11.17h-2.915l9.219-13.87h1.912l9.161 13.87z" transform="translate(-166.397)"/><path d="m215.908 0h2.62v13.87h-2.62z"/><path d="m467.524 13.87-14.8-10.8v10.8h-2.285v-13.87h2.266l13.81 10.3v-10.3h2.286v13.87z" transform="translate(-215.856)"/><path d="m565.747 13.87c-3.289 0-4.945-1.005-4.945-3v-7.87c0-1.99 1.656-3 4.945-3h10.853v2.049h-10.853c-1.556 0-2.325.316-2.325.946v7.88c0 .631.769.946 2.325.946h6.128c1.557 0 2.325-.3 2.325-.907v-4.614h2.621v4.61c0 1.971-1.655 2.955-4.945 2.955z" transform="translate(-268.741)"/><path d="m628.389 13.87v-5.635l-8.906-8.235h3.349l6.856 6.344 6.857-6.344h3.31l-8.846 8.235v5.635z" transform="translate(-296.862)"/><path d="m705.485 13.87v-9.712l-7.053 9.712h-2.148l-7.073-9.693v9.693h-2.423v-13.87h2.444l8.235 11.329 8.195-11.329h2.246v13.87z" transform="translate(-329.115)"/><path d="m738.858.01v.445h.934v2.411h.5v-2.411h.942v-.445z" transform="translate(-354.067 -.005)"/></g></svg>