<svg enable-background="new 0 0 265.4 127.3" viewBox="0 0 265.4 127.3" xmlns="http://www.w3.org/2000/svg"><path d="m27.2 27v-12.3h-22.1v12.3h-5.1v-27h5.1v10.7h22.1v-10.7h5.1v27zm42.3-10v10h-5.1v-27h22.1c6.1 0 8.5 2.6 8.5 6.5v4c0 3.9-2.3 6.5-8.5 6.5zm20.4-10.5c0-1.6-1.1-2.5-3.4-2.5h-17v9h17c2.3 0 3.4-.9 3.4-2.5zm38.1 20.5v-4h23.5c2.3 0 3.4-.9 3.4-2.5v-3.4c0-1.6-1.1-2.5-3.4-2.5h-15.9c-6.1 0-8.5-2.6-8.5-6.5v-1.6c0-3.9 2.3-6.5 8.5-6.5h22.9v4h-22.9c-2.3 0-3.4.9-3.4 2.5v1.6c0 1.6 1.1 2.5 3.4 2.5h15.9c6.1 0 8.5 2.6 8.5 6.5v3.3c0 3.9-2.3 6.5-8.5 6.5zm-127.6 51v-27h22c6 0 8.3 2.2 8.3 5.8v2.5c.2 2.1-1.2 4-3.2 4.5 2.1.4 3.7 2.3 3.5 4.4v4c0 3.1-1.9 5.8-8.5 5.8zm25.2-20.9c0-1.5-.8-2.1-3.2-2.1h-16.9v7h16.9c2.4 0 3.2-.6 3.2-2.1zm.3 11.2c0-1.7-1.4-2.3-3.4-2.3h-17v8h17c2 0 3.4-.6 3.4-2.8zm63.7 9.7-6.3-12h-14.3v12h-5.1v-27h22.9c6.1 0 8.5 2.6 8.5 6.5v1.9c0 3.5-1.9 6-6.7 6.4l6.4 12.2zm.6-20.5c0-1.6-1.1-2.5-3.4-2.5h-17.8v7h17.8c2.3 0 3.4-.9 3.4-2.5zm67.5 20.5-13.9-21.7-14.1 21.7h-5.7l17.9-27h3.7l17.8 27zm34.6-27h5.1v27h-5.1zm70.6 27-28.8-21v21h-4.4v-27h4.4l26.9 20v-20h4.4v27zm-252.8 49.3c-6.4 0-9.6-2-9.6-5.8v-15.3c0-3.9 3.2-5.8 9.6-5.8h21.1v4h-21.1c-3 0-4.5.6-4.5 1.8v15.3c0 1.2 1.5 1.8 4.5 1.8h11.9c3 0 4.5-.6 4.5-1.8v-9h5.1v9c0 3.8-3.2 5.8-9.6 5.8zm67.2 0v-11l-17.3-16h6.5l13.3 12.3 13.3-12.3h6.4l-17.2 16v11zm82.3 0v-18.9l-13.7 18.9h-4.2l-13.8-18.9v18.9h-4.7v-27h4.8l16 22.1 16-22.1h4.4v27zm15.4-27v.9h1.8v4.7h1v-4.7h1.8v-.9zm5.3 0h.9l1.8 2.6 1.8-2.6h.9v5.6h-1v-2.8c0-.4 0-.8 0-1.2-.2.4-.5.7-.7 1.1l-1 1.5-1-1.5c-.3-.4-.5-.7-.7-1.1v1.2 2.8h-.9z" fill="#fff"/></svg>