<svg enable-background="new 0 0 76.6 76.6" viewBox="0 0 76.6 76.6" width="76.557" height="76.557" xmlns="http://www.w3.org/2000/svg"><g fill="#4587FF"><path d="m63.6 29c-.4 0-.8-.2-1.1-.6-.4-.6-.2-1.4.4-1.7 2-1.3 3.1-3.4 3.1-5.7 0-3.7-3-6.8-6.8-6.8-2.6 0-4.9 1.4-6 3.7-.3.6-1.1.9-1.7.5-.6-.3-.9-1.1-.5-1.7 1.6-3.1 4.8-5.1 8.3-5.1 5.1 0 9.3 4.2 9.3 9.3 0 3.2-1.6 6.1-4.3 7.8-.2.3-.5.3-.7.3z"/><path d="m38.3 26.9c-.7 0-1.2-.6-1.2-1.2v-13.9c-.1-6.5 5.2-11.8 11.7-11.8s11.8 5.3 11.8 11.8v.9c-.1.7-.7 1.2-1.4 1.1s-1.2-.7-1.1-1.4c0-.2 0-.4 0-.6 0-5.1-4.2-9.3-9.3-9.3s-9.3 4.2-9.3 9.3v13.9c0 .6-.5 1.2-1.2 1.2z"/><path d="m48.8 76.5c-6.5 0-11.8-5.3-11.8-11.8v-13.7c0-.7.6-1.2 1.2-1.2s1.2.6 1.2 1.2v13.7c0 5.1 4.2 9.3 9.3 9.3s9.3-4.2 9.3-9.3c0-.2 0-.5 0-.7-.1-.7.5-1.3 1.1-1.3.7-.1 1.3.5 1.3 1.1v.9c.2 6.6-5.1 11.8-11.6 11.8z"/><path d="m66.9 53.1c-.5 0-.9-.3-1.1-.7-.3-.6-.1-1.4.6-1.7 4.8-2.4 7.7-7.2 7.7-12.5 0-5.4-3.1-10.3-8-12.6-.6-.3-.9-1-.6-1.7.3-.6 1-.9 1.7-.6 5.7 2.7 9.4 8.5 9.4 14.8s-3.5 11.9-9.1 14.7c-.2.3-.4.3-.6.3z"/><path d="m59.3 64.8c-3.5 0-6.7-1.9-8.3-5.1-.3-.6-.1-1.4.5-1.7s1.4-.1 1.7.5c1.2 2.3 3.5 3.7 6 3.7 3.7 0 6.8-3 6.8-6.8 0-2.3-1.2-4.4-3.1-5.7-.6-.4-.7-1.1-.4-1.7.4-.6 1.2-.7 1.7-.4 2.7 1.7 4.3 4.6 4.3 7.8 0 5.2-4.1 9.4-9.2 9.4z"/><path d="m13 29c-.2 0-.5-.1-.7-.2-2.7-1.7-4.3-4.6-4.3-7.8 0-5.1 4.2-9.3 9.3-9.3 3.5 0 6.7 1.9 8.3 5.1.3.6.1 1.4-.5 1.7s-1.4.1-1.7-.5c-1.2-2.3-3.5-3.7-6-3.7-3.7 0-6.8 3-6.8 6.8 0 2.3 1.2 4.4 3.1 5.7.6.4.7 1.1.4 1.7-.3.3-.7.5-1.1.5z"/><path d="m38.3 26.9c-.7 0-1.2-.6-1.2-1.2v-13.9c0-5.1-4.2-9.3-9.3-9.3s-9.3 4.2-9.3 9.3v.6c.1.7-.4 1.3-1.1 1.4s-1.3-.4-1.4-1.1c0-.3 0-.6 0-.9 0-6.5 5.3-11.8 11.8-11.8s11.8 5.3 11.8 11.8v13.9c-.1.6-.6 1.2-1.3 1.2z"/><path d="m27.8 76.5c-6.5 0-11.8-5.3-11.8-11.8 0-.3 0-.6 0-.9.1-.7.7-1.2 1.3-1.2.7.1 1.2.7 1.1 1.3v.7c0 5.1 4.2 9.3 9.3 9.3s9.3-4.2 9.3-9.3v-13.6c0-.7.6-1.2 1.2-1.2s1.3.6 1.3 1.2v13.7c0 6.6-5.3 11.8-11.7 11.8z"/><path d="m9.6 53.1c-.2 0-.4 0-.6-.1-5.5-2.8-9-8.5-9-14.7 0-6.3 3.7-12.2 9.4-14.9.6-.3 1.4 0 1.7.6s0 1.4-.6 1.7c-4.8 2.3-8 7.2-8 12.6 0 5.3 3 10.1 7.7 12.5.6.3.9 1.1.6 1.7-.3.3-.7.6-1.2.6z"/><path d="m17.3 64.8c-5.1 0-9.3-4.2-9.3-9.3 0-3.2 1.6-6.1 4.3-7.8.6-.4 1.4-.2 1.7.4.4.6.2 1.4-.4 1.7-2 1.3-3.1 3.4-3.1 5.7 0 3.7 3 6.8 6.8 6.8 2.6 0 4.9-1.4 6-3.7.3-.6 1.1-.9 1.7-.5.6.3.9 1.1.5 1.7-1.6 3.1-4.7 5-8.2 5z"/><path d="m39.7 52.3h-2.9c-2.5 0-4.5-2-4.5-4.5v-3.6h-3.6c-2.5 0-4.5-2-4.5-4.5v-2.9c0-2.5 2-4.5 4.5-4.5h3.6v-3.6c0-2.5 2-4.5 4.5-4.5h2.9c2.5 0 4.5 2 4.5 4.5v3.6h3.6c2.5 0 4.5 2 4.5 4.5v2.9c0 2.5-2 4.5-4.5 4.5h-3.6v3.6c0 2.5-2 4.5-4.5 4.5zm-10.9-17.4c-1.1 0-2 .9-2 2v2.9c0 1.1.9 2 2 2h4.8c.7 0 1.2.6 1.2 1.2v4.8c0 1.1.9 2 2 2h2.9c1.1 0 2-.9 2-2v-4.8c0-.7.6-1.2 1.2-1.2h4.8c1.1 0 2-.9 2-2v-2.9c0-1.1-.9-2-2-2h-4.8c-.7 0-1.2-.6-1.2-1.2v-4.8c0-1.1-.9-2-2-2h-2.9c-1.1 0-2 .9-2 2v4.8c0 .7-.6 1.2-1.2 1.2z"/></g></svg>