<svg enable-background="new 0 0 119.9 138.3" viewBox="0 0 119.9 138.3" xmlns="http://www.w3.org/2000/svg"><path d="m102.6 46.2-7.4-.6c-.6-2.4-1.5-4.7-2.7-6.8l5-5.9c.8-.9.7-2.3-.1-3.1l-7.2-7.2c-.8-.8-2.2-.9-3.1-.1l-5.7 4.8c-2.1-1.3-4.4-2.2-6.8-3l-.7-7.7c-.1-1.2-1.1-2.1-2.3-2.1h-10.2c-1.2 0-2.2.9-2.3 2.1l-.6 7.3c-2.4.6-4.7 1.5-6.9 2.7l-6-5c-.9-.8-2.3-.7-3.1.1l-7.2 7.2c-.9.9-.9 2.2-.1 3.1l4.8 5.6c-1.3 2.1-2.3 4.3-3 6.7l-7.8.7c-1.2.1-2.2 1.1-2.2 2.3v10.2c0 1.2.9 2.2 2.1 2.3l7.4.6c.6 2.4 1.5 4.7 2.7 6.8l-5 5.9c-.8.9-.7 2.3.1 3.1l7.2 7.2c.8.8 2.2.9 3.1.1l5.7-4.8c2.1 1.3 4.4 2.2 6.8 3l.7 7.7c.1 1.2 1.1 2.1 2.3 2.1h10.3c1.2 0 2.2-.9 2.3-2.1l.6-7.3c2.4-.6 4.7-1.5 6.9-2.7l6 5c.9.8 2.2.7 3.1-.1l7.3-7.2c.9-.8.9-2.2.1-3.1l-4.8-5.6c1.3-2.1 2.3-4.3 3-6.7l7.8-.6c1.2-.1 2.1-1.1 2.1-2.3v-10.3c-.1-1.2-1-2.2-2.2-2.3zm-2.5 10.4-7.3.6c-1 .1-1.8.8-2 1.8-.7 3-2 5.8-3.7 8.3-.6.9-.5 2 .1 2.8l4.5 5.3-4.2 4.2-5.6-4.7c-.8-.6-1.8-.7-2.7-.2-2.6 1.6-5.5 2.7-8.5 3.3-1 .2-1.8 1-1.9 2.1l-.6 6.9h-6l-.6-7.2c-.1-1-.8-1.8-1.8-2.1-3-.7-5.8-1.9-8.4-3.7-.8-.6-2-.5-2.8.2l-5.4 4.5-4.2-4.2 4.7-5.5c.7-.8.7-1.9.2-2.7-1.6-2.6-2.7-5.4-3.3-8.4-.2-1-1-1.8-2.1-1.9l-7-.6v-5.9l7.3-.6c1-.1 1.8-.8 2-1.8.7-3 2-5.8 3.7-8.3.6-.9.5-2-.2-2.8l-4.3-5.3 4.2-4.2 5.6 4.7c.8.6 1.8.7 2.7.2 2.6-1.6 5.5-2.7 8.5-3.3 1-.2 1.8-1 1.9-2.1l.6-6.9h6l.6 7.2c.1 1 .8 1.8 1.8 2 3 .7 5.8 2 8.4 3.7.9.6 2 .5 2.8-.1l5.4-4.5 4.2 4.2-4.7 5.5c-.7.8-.7 1.8-.2 2.7 1.6 2.6 2.7 5.5 3.3 8.4.2 1 1 1.8 2.1 1.9l7 .6v5.9zm-34.2-17.2c-7.5 0-13.7 6.1-13.7 13.6s6.1 13.6 13.7 13.6 13.6-6.2 13.6-13.6c0-7.5-6.1-13.6-13.6-13.6zm0 22.5c-5 0-9.1-4-9.1-9s4.1-8.9 9.1-8.9 9.1 4 9.1 9c0 4.9-4.1 8.9-9.1 8.9zm54-8.7c0 13.9-5.3 26.9-15 36.9v46c0 1.3-1 2.3-2.3 2.3s-2.3-1-2.3-2.3v-47c0-.6.2-1.2.7-1.6 9.2-9.2 14.3-21.3 14.3-34.3 0-7.1-1.3-13.4-3.8-18.8-14.9-31.7-43.9-29.9-45.1-29.8-27.2 0-49.2 21.8-49.2 48.5 0 .7 0 1.5.1 2.2 0 .5-.1 1-.4 1.4l-9.9 13.8-1.6 2.7c-1 1.8-1 3.9 0 5.6 1 1.8 2.8 2.8 4.9 2.8 1.3 0 2.3 1 2.3 2.3v20.1c0 6.3 5.2 11.4 11.5 11.4h21.9c1.3 0 2.3 1 2.3 2.3v18.3c0 1.3-1 2.3-2.3 2.3s-2.3-1-2.3-2.3v-16h-19.6c-8.9 0-16.2-7.2-16.2-16v-18c-2.8-.6-5.1-2.3-6.6-4.9-1.8-3.2-1.8-7 0-10.2l1.8-2.9 9.5-13.2c0-.5 0-1.1 0-1.6-.1-29.3 24-53.2 53.6-53.2.1 0 33.1-2.3 49.4 32.4 2.9 6 4.3 13 4.3 20.8z"/></svg>