<svg height="76.295" viewBox="0 0 70.528 76.295" width="70.528" xmlns="http://www.w3.org/2000/svg"><g fill="none" stroke="#4587ff" stroke-linejoin="round" stroke-width="2.5"><circle cx="12.588" cy="29.693" r="5.039"/><path d="m12.588 57.408v17.637" stroke-linecap="round"/><circle cx="57.94" cy="29.693" r="5.039"/><path d="m57.94 57.409v17.636m6.3-30.234v28.974a1.26 1.26 0 0 1 -1.26 1.26h-10.08a1.26 1.26 0 0 1 -1.26-1.26v-27.616a2.52 2.52 0 0 0 -3.14-2.442l-8.8 2.256a2.519 2.519 0 1 1 -1.3-4.867l14.5-3.864 5.039 5.039 5.04-5.039 3.264.832a4.436 4.436 0 0 1 3.035 4.207v11.337a5.04 5.04 0 0 1 -5.039 5.04m-28.975-57.418v73.795m22.761-57.245h-22.761v-16.55h22.761l-6.208 8.276zm-51.736 27.01v28.975a1.26 1.26 0 0 0 1.26 1.26h10.077a1.26 1.26 0 0 0 1.261-1.26v-28.66a3.78 3.78 0 0 1 2.721-3.625l10.528-3.071a2.519 2.519 0 0 0 -1.3-4.867l-13.21 3.69-5.039 5.039-5.038-5.039-3.264.832a4.436 4.436 0 0 0 -3.035 4.207v11.337a5.04 5.04 0 0 0 5.039 5.04" stroke-linecap="round"/></g></svg>