<svg height="116.676" viewBox="0 0 112.645 116.676" width="112.645" xmlns="http://www.w3.org/2000/svg"><g fill="none" stroke-width="3"><path d="m89.493 88.36a30.7 30.7 0 0 0 10.959-17.56 29.952 29.952 0 0 0 -4.9-24.638c-3.89-25.027-21.6-42.224-43.987-42.224s-40.1 17.2-43.989 42.226a29.966 29.966 0 0 0 -4.897 24.636 30.7 30.7 0 0 0 10.958 17.56" opacity=".25" stroke="#f23629" stroke-linecap="round" stroke-miterlimit="10" transform="translate(4.756 -2.438)"/><path d="m61.024 41.417c-.17-19.546-10.973-31.809-24.291-31.809s-24.126 12.263-24.292 31.809c-3.6.828-5.664 5.331-4.6 10.077.943 4.2 4.008 7.174 7.207 7.265 4 12.755 12.2 22.6 21.686 22.6s17.681-9.842 21.686-22.6c3.2-.09 6.264-3.065 7.2-7.265 1.066-4.746-.994-9.249-4.6-10.077" stroke="#00124f" transform="translate(19.592 12.385)"/><path d="m61.024 41.417c-.17-19.546-10.973-31.809-24.291-31.809s-24.126 12.263-24.292 31.809c-3.6.828-5.664 5.331-4.6 10.077.943 4.2 4.008 7.174 7.207 7.265 4 12.755 12.2 22.6 21.686 22.6s17.681-9.842 21.686-22.6c3.2-.09 6.264-3.065 7.2-7.265 1.068-4.746-.992-9.249-4.596-10.077z" stroke="#00124f" stroke-miterlimit="10" transform="translate(19.592 12.385)"/><path d="m40.486 29.929c-.788 3.04-4.9 10.207-15.9 10.207h-13.34c-6.574 0-10.207 7.16-10.7 9.224" stroke="#00124f" stroke-linecap="round" stroke-linejoin="round" transform="translate(1.259 65.51)"/><path d="m19.665 29.929c.788 3.04 4.9 10.207 15.9 10.207h13.335c6.574 0 10.207 7.16 10.7 9.224" stroke="#00124f" stroke-linecap="round" stroke-linejoin="round" transform="translate(51.235 65.51)"/></g><path d="m36.588 29.286h-10.088v-14.194a1.146 1.146 0 0 0 -2.122-.6l-12.125 19.836a1.145 1.145 0 0 0 .976 1.742h10.087v14.19a1.145 1.145 0 0 0 2.122.6l12.126-19.836a1.143 1.143 0 0 0 -.976-1.738" fill="#f23629" transform="translate(31.414 23.732)"/><path d="m73.844 74.175a20.014 20.014 0 0 0 9.195-13.026c1.572-7.023-.383-13.77-4.67-18.064-2.23-21.35-15.986-36.313-34.22-36.313s-31.99 14.963-34.22 36.313c-4.279 4.293-6.238 11.041-4.669 18.064a20.026 20.026 0 0 0 9.195 13.026" style="fill:none;stroke:#f23629;stroke-linecap:round;stroke-miterlimit:10;stroke-width:3;opacity:.5" transform="translate(12.172 4.971)"/></svg>