<svg viewBox="0 0 167.3 109.4" xmlns="http://www.w3.org/2000/svg"><path d="m164.6 91.8h-4.5v-69.5c0-12.3-10-22.3-22.3-22.3h-108.3c-12.3 0-22.3 10-22.3 22.3v69.5h-4.5c-1.5 0-2.7 1.2-2.7 2.7v2.8c0 6.7 5.4 12.1 12.1 12.1h143.2c6.7 0 12.1-5.4 12.1-12.1v-2.8c-.1-1.5-1.3-2.7-2.8-2.7zm-151.9-69.5c0-9.3 7.5-16.8 16.8-16.8h108.3c9.3 0 16.8 7.5 16.8 16.8v69.5h-37.9c-5.2-19.7-18.2-32.8-33-32.8s-27.9 13.1-33.1 32.8h-37.9zm98.3 69.5h-54.7c4.7-16.5 15.4-27.3 27.4-27.3 11.9 0 22.6 10.8 27.3 27.3zm50.8 5.5c0 3.6-3 6.6-6.6 6.6h-143.1c-3.6 0-6.6-3-6.6-6.6v-.1zm-78.1-82.7c-11.2 0-20.4 9.2-20.4 20.4s9.1 20.4 20.4 20.4c11.2 0 20.4-9.2 20.4-20.4s-9.2-20.4-20.4-20.4zm0 35.3c-8.2 0-14.9-6.7-14.9-14.9s6.7-14.9 14.9-14.9 14.9 6.7 14.9 14.9-6.7 14.9-14.9 14.9z"/></svg>