<svg height="110.84" width="139.52" xmlns="http://www.w3.org/2000/svg"><g fill="none"><path d="m113.511 41.417c-.17-19.546-10.973-31.809-24.292-31.809s-24.125 12.263-24.3 31.809c-3.6.828-5.664 5.331-4.6 10.077.94 4.2 4 7.174 7.207 7.265 4 12.755 12.2 22.6 21.686 22.6s17.681-9.842 21.686-22.6c3.2-.09 6.264-3.065 7.2-7.265 1.063-4.746-1-9.249-4.6-10.077" stroke="#00124f" stroke-width="3" transform="translate(-28.518 6.55)"/><path d="m113.511 41.417c-.17-19.546-10.973-31.809-24.292-31.809s-24.125 12.263-24.3 31.809c-3.6.828-5.664 5.331-4.6 10.077.94 4.2 4 7.174 7.207 7.265 4 12.755 12.2 22.6 21.686 22.6s17.681-9.842 21.686-22.6c3.2-.09 6.264-3.065 7.2-7.265 1.073-4.746-.987-9.249-4.587-10.077z" stroke="#00124f" stroke-miterlimit="10" stroke-width="3" transform="translate(-28.518 6.55)"/><g stroke-linecap="round"><path d="m92.972 29.929c-.788 3.04-4.9 10.207-15.9 10.207h-13.34c-6.574 0-10.207 7.16-10.7 9.224" stroke="#00124f" stroke-linejoin="round" stroke-width="3" transform="translate(-46.849 59.675)"/><path d="m72.151 29.929c.788 3.04 4.9 10.207 15.9 10.207h13.339c6.574 0 10.207 7.16 10.7 9.224" stroke="#00124f" stroke-linejoin="round" stroke-width="3" transform="translate(3.127 59.675)"/><path d="m77.591 12.143h8.2l-8.631 8.631h8.64" stroke="#4587ff" stroke-linejoin="round" stroke-width="2" transform="translate(16.234 13.178)"/><path d="m81.693 9.142h10.073l-10.6 10.6h10.6" stroke="#4587ff" stroke-linejoin="round" stroke-width="3" transform="translate(26.702 5.332)"/><path d="m86.717 5.691h11.1l-11.675 11.678h11.674" stroke="#4587ff" stroke-linejoin="round" stroke-width="4" transform="translate(39.703 -3.691)"/><path d="m150.91 7.3h-85.474a13.738 13.738 0 0 0 -13.698 13.7v44.878a13.741 13.741 0 0 0 13.7 13.7h18.322" opacity=".5" stroke="#00124f" stroke-miterlimit="10" stroke-width="3" transform="translate(-50.238 .511)"/><path d="m75.638 57.828h18.321a13.736 13.736 0 0 0 13.7-13.7v-28.511" opacity=".5" stroke="#00124f" stroke-miterlimit="10" stroke-width="3" transform="translate(12.243 22.259)"/></g></g></svg>