<svg height="128.803" width="148.373" xmlns="http://www.w3.org/2000/svg"><g fill="none"><path d="m165.213 41.417c-.166-19.546-10.969-31.809-24.292-31.809s-24.121 12.263-24.291 31.809c-3.6.828-5.664 5.331-4.6 10.077.943 4.2 4.008 7.174 7.207 7.265 4 12.755 12.2 22.6 21.686 22.6s17.685-9.842 21.689-22.6c3.2-.09 6.264-3.065 7.2-7.265 1.063-4.746-1-9.249-4.6-10.077" stroke="#00124f" stroke-width="3" transform="translate(-84.597 24.512)"/><path d="m165.213 41.417c-.166-19.546-10.969-31.809-24.292-31.809s-24.121 12.263-24.291 31.809c-3.6.828-5.664 5.331-4.6 10.077.943 4.2 4.008 7.174 7.207 7.265 4 12.755 12.2 22.6 21.686 22.6s17.685-9.842 21.689-22.6c3.2-.09 6.264-3.065 7.2-7.265 1.065-4.746-.995-9.249-4.599-10.077z" stroke="#00124f" stroke-miterlimit="10" stroke-width="3" transform="translate(-84.597 24.512)"/><g stroke-linecap="round" stroke-linejoin="round"><path d="m144.675 29.929c-.788 3.04-4.9 10.207-15.9 10.207h-13.34c-6.574 0-10.207 7.16-10.7 9.224" stroke="#00124f" stroke-width="3" transform="translate(-102.93 77.637)"/><path d="m123.855 29.929c.788 3.04 4.9 10.207 15.9 10.207h13.344c6.574 0 10.207 7.16 10.7 9.224" stroke="#00124f" stroke-width="3" transform="translate(-52.951 77.637)"/><path d="m157.038 20.364a13.057 13.057 0 1 1 -13.058-13.058 13.058 13.058 0 0 1 13.058 13.058z" stroke="#ff874a" stroke-width="3" transform="translate(-34.468 18.494)"/><path d="m109.515 18.016v-17.016" opacity=".5" stroke="#ff874a" stroke-width="2"/><path d="m124.252 24.12 12.032-12.032" opacity=".25" stroke="#ff874a" stroke-width="2"/><path d="m130.357 38.857h17.016" opacity=".5" stroke="#ff874a" stroke-width="2"/><path d="m124.252 53.594 12.032 12.032" opacity=".25" stroke="#ff874a" stroke-width="2"/><path d="m109.515 59.698v17.016" opacity=".5" stroke="#ff874a" stroke-width="2"/><path d="m94.778 53.594-5.703 5.703" opacity=".25" stroke="#ff874a" stroke-width="2"/><path d="m88.674 38.857h-8.508" opacity=".5" stroke="#ff874a" stroke-width="2"/><path d="m94.778 24.12-12.032-12.032" opacity=".25" stroke="#ff874a" stroke-width="2"/></g></g></svg>